<?xml version="1.0" encoding="utf-8"?>
<!-- Generator: Adobe Illustrator 16.0.0, SVG Export Plug-In . SVG Version: 6.00 Build 0)  -->
<!DOCTYPE svg PUBLIC "-//W3C//DTD SVG 1.1//EN" "http://www.w3.org/Graphics/SVG/1.1/DTD/svg11.dtd">
<svg version="1.1" xmlns="http://www.w3.org/2000/svg" xmlns:xlink="http://www.w3.org/1999/xlink" x="0px" y="0px" width="315px"
	 height="56px" viewBox="0 0 315 56" enable-background="new 0 0 315 56" xml:space="preserve">
<g id="Layer_1">
	<text transform="matrix(1 0 0 1 65.291 42.75)" font-family="'Aladin-Regular'" font-size="36">Krusty Krab Finance</text>
</g>
<g id="Layer_10">
	<path fill="#0C0B0B" stroke="#0C0B0B" stroke-width="0.25" stroke-miterlimit="10" d="M21.5,6.813c0,0,9.922-8,20.43-5.125
		l0.258,5.125l1.438-3.5c0,0,1.125,0.5,1.875,1.438l-1.667,2.515c0,0,0.938,0.652,1.25,0.902L47,6.813c0,0,1.354,0.917,1.542,1.771
		l-2.229,0.875c0,0,1.875,6.354,0.792,9.125s-5.563,3.833-5.563,3.833s-0.5,1.396,0.187,3.271s3.005,7.736-4.188,7.229
		c0,0-2.191-1.229-2.606,0.979s-1.748,5.563-1.436,6.167s2.438,2.688,2.438,2.688s8.146,1.625,10.021,2.688
		s-23.722,9.438-26.497,9.375s-6.837-3.125-6.837-3.125l3.438-6.813c0,0,10.42-17.574,9.335-21.443s-1.315-10.182-1.825-12.557
		S21.063,7.144,21.5,6.813z"/>
</g>
<g id="Layer_5">
	<path fill="#FE2127" stroke="#0F0E0E" stroke-width="0.25" stroke-miterlimit="10" d="M33.938,24.031c0,0-4.156,1.031-3.422-4.156
		s4.297,1.078,4.156,1.328S33.938,24.031,33.938,24.031z"/>
	<path fill="#FE2127" stroke="#0F0E0E" stroke-width="0.25" stroke-miterlimit="10" d="M40.625,17.667c0,0,0.082,0.056,0.113,0.078
		c0.34,0.239,1.316,0.974,1.178,1.422c-0.167,0.542-2.208,1.458-1.292,6.375s-0.234,8.552-4.094,3.599s0.5-9.063,0.469-9.109
		S40.625,17.667,40.625,17.667z"/>
	<path fill="#E8E6CF" stroke="#000000" stroke-width="0.25" stroke-miterlimit="10" d="M19.422,17.281c0,0,0.625,1.751,1.375,2.438
		s1.047-0.579,1.047-0.579s0.031-1.359-0.719-2.516S19.333,17.048,19.422,17.281z"/>
	<path fill="#E8E6CF" stroke="#000000" stroke-width="0.25" stroke-miterlimit="10" d="M24.928,18.27c0,0,0.03-1.318-0.293-1.963
		s-0.84,0.118-0.84,0.118s-0.365,0.893-0.162,1.848C23.838,19.229,24.928,18.447,24.928,18.27z"/>
	<path fill="#DD1919" stroke="#000000" stroke-width="0.25" stroke-miterlimit="10" d="M19.375,18.188c0,0-4.708-4.646-5.042-7.438
		s1.333-2.917,3.792-0.292s2.961,4.259,3.583,6.75C21.896,17.96,21.726,17.614,19.375,18.188z"/>
	<path fill="#DD1919" stroke="#000000" stroke-width="0.25" stroke-miterlimit="10" d="M23.563,16.625c0,0-0.063-1.75-1.625-4.5
		s-2.093-6.524,1.625-4.063c2.313,1.531,1.938,8.594,1.531,8.563S23.688,16.375,23.563,16.625z"/>
	<path fill="#F90000" stroke="#000000" stroke-width="0.25" stroke-miterlimit="10" d="M16.906,26.656c0,0,0.697-6.785,5.969-7.414
		c4.219-0.503,6.438,5.342,6.438,5.342l-11.594,2.509L16.906,26.656z"/>
	<path fill="#DD1919" stroke="#000000" stroke-width="0.25" stroke-miterlimit="10" d="M19.75,19.063c0,0,2.063-0.156,2.375-0.531
		s0.344,1.719-0.188,2.281S20.625,20.125,19.75,19.063z"/>
	<path fill="#DD1919" stroke="#000000" stroke-width="0.25" stroke-miterlimit="10" d="M23.344,18.188c0,0,1.813-0.188,2.375,0
		s-0.547,0.391-0.656,1.016s-0.313,1.609-0.781,0.969S23.156,18.578,23.344,18.188z"/>
	<path fill="#FE2127" stroke="#0F0E0E" stroke-width="0.25" stroke-miterlimit="10" d="M16.047,40.922c0,0-1.859,6.625-1.797,6.844
		s3.203-2.438,4.859-6.094S16.047,40.359,16.047,40.922z"/>
	<path fill="#FE2127" stroke="#0F0E0E" stroke-width="0.25" stroke-miterlimit="10" d="M31.5,39.031c0,0,3.5,3.688,4.125,4.094
		s-1.313-2.656-2.063-4.344s-1.469-0.469-1.469-0.469L31.5,39.031z"/>
	<path fill="#221B55" stroke="#070707" stroke-width="0.25" stroke-miterlimit="10" d="M33.469,35.75c0,0,2.275,2.938,2.278,3.188
		s-2.31,3.363-3.091,3.088s-2.469-2.557-2.469-2.557L33.469,35.75z"/>
</g>
<g id="Layer_3">
	<path fill="#33AD39" stroke="#0A0A0A" stroke-width="0.25" stroke-miterlimit="10" d="M6,33l5.542-2.631
		c0,0,4.042,14.515,12.958,11.656s14.417-23.275,1-33.775c0,0,9.167-6.667,13.5-3.333C39,4.917,44.5,66.25,6,33z"/>
	<path fill="#FE2127" stroke="#0F0E0E" stroke-width="0.25" stroke-miterlimit="10" d="M31.781,21.375c0,0-3.938-1.156-4.281-5.844
		s2.719-6.938,5.844-7.813s10,0.125,11.219,4.469s-0.063,9-4.531,9.719l0.781-3.281l-1.484,1.078l-1.344-0.984l-1.408,1.115
		l-2.469-0.984C34.107,18.849,32.156,20.469,31.781,21.375z"/>
</g>
<g id="Layer_2">
	<path fill="#FE1F25" stroke="#0C0B0B" stroke-width="0.25" stroke-miterlimit="10" d="M14.188,26.281c0,0-2.375-1.406-3.844-1.031
		s0,5.844,0,5.844L10.406,32l0.031,0.813c0,0-4.25,1.5-2.344,6.063s6.125,2.938,6.844,2.563s-0.313-1.469-0.313-1.469
		s-0.885-0.719-0.542-4.219s-1.396-3.031-1.396-3.031s-3.094-5.594-1.5-5.906s3.063,0.938,3.063,0.938L14.188,26.281z"/>
	<g id="Layer_6">
		<path fill="#9AE0FF" stroke="#070707" stroke-width="0.25" stroke-miterlimit="10" d="M14.75,25.187c0,0-1.25,1.407-1.125,3.751
			c0,0,0.219,0.25,0.875,0.375s-0.188,0.531,0.063,2.344c0,0,15.031-3.657,17.344-3.235S32.5,27.75,32.5,27.75
			s-0.156-1.125-1.375-2.25s-1.969-1.25-2.281-1.344s-2.406,0.203-2.781,0.672s-0.656,1.109-0.656,1.109l-1.344-1.125
			c0,0-3.094-0.125-6.984,0.922C17.078,25.734,15.875,25.248,14.75,25.187z"/>
	</g>
	<path fill="#221B55" stroke="#070707" stroke-width="0.25" stroke-miterlimit="10" d="M12.333,32.334c0,0-1.876,2.917,0.958,6.333
		c1.599,1.927,1.8,1.983,1.8,1.983l-0.134,2.1c0,0,3.222-0.084,3.069,0.875S18.167,44.25,19,44.042s1.896-1.823,1.896-1.823
		s2.593,0.234,4.529-0.558s7.595-6.741,7.689-13.764C33.114,27.897,23.333,26.709,12.333,32.334z"/>
</g>
<g id="Layer_9">
</g>
<g id="Layer_7">
</g>
<g id="Layer_4">
	<path fill="#0C0B0B" stroke="#0C0B0B" stroke-width="0.25" stroke-miterlimit="10" d="M12.063,36.781c0,0-1.196-2.094,0.022-3.938
		c0,0,7.092-4.841,21.029-3.966c0,0-0.703,3.593-0.984,4.374C32.13,33.252,18.563,33.25,12.063,36.781z"/>
</g>
<g id="Layer_8">
	<path fill="none" stroke="#EDD10A" stroke-miterlimit="10" d="M23.109,29.875c0,0-0.297,4.156,0.828,4.188s6.188-0.489,6.491-1.844
		c0.273-1.219,0-2.906-0.741-3.444C28.88,28.188,23.117,29.276,23.109,29.875z"/>
</g>
</svg>
